Coordinates
version=1
nRows=24
nColumns=24
inDegrees=yes

Units are S.I. units (second, meters, Newtons, ...)
Angles are in degrees.

endheader
time	pelvis_tilt	pelvis_list	pelvis_rotation	pelvis_tx	pelvis_ty	pelvis_tz	hip_flexion_r	hip_adduction_r	hip_rotation_r	knee_angle_r	ankle_angle_r	subtalar_angle_r	mtp_angle_r	hip_flexion_l	hip_adduction_l	hip_rotation_l	knee_angle_l	ankle_angle_l	subtalar_angle_l	mtp_angle_l	lumbar_extension	lumbar_bending	lumbar_rotation
      3.77000000	    -14.87989899	     10.44395741	     -9.01975735	     -0.79532300	     -0.02204617	      0.06343633	     19.65552947	    -16.10448278	     -3.40300908	    -56.33341168	    -25.61047686	     11.60550726	     35.63029944	     29.92749038	      8.61710317	    -17.68323169	    -15.31959612	     -8.61912417	      2.55390765	     10.05014942	     14.66149618	    -12.32537765	      7.18507393
      3.77500000	    -14.78439654	     10.39585214	     -8.88232833	     -0.78930884	     -0.02102040	      0.06265954	     20.27362226	    -16.05974116	     -3.22846069	    -57.21838251	    -24.75436420	     11.43391971	     35.81811634	     29.23810312	      8.83340754	    -17.56108622	    -14.92417872	     -8.36182451	      2.81820540	     10.07983242	     14.55398121	    -12.32024963	      6.87759714
      3.78000000	    -14.66996475	     10.33910441	     -8.76032799	     -0.78335139	     -0.01993881	      0.06190677	     20.86952922	    -15.98685652	     -3.01172023	    -58.02674207	    -23.98277850	     11.41347443	     36.01875064	     28.52148082	      9.03533364	    -17.43727473	    -14.51034871	     -8.14777509	      3.08140407	     10.08487549	     14.42026372	    -12.30495450	      6.55984616
      3.78500000	    -14.57552538	     10.23726597	     -8.62366968	     -0.77738844	     -0.01889148	      0.06112101	     21.45518673	    -15.86561574	     -2.83908074	    -58.75939242	    -23.26796969	     11.46973824	     36.27398288	     27.82206383	      9.19769865	    -17.25433315	    -14.10763498	     -7.93658221	      3.26050863	     10.10944622	     14.30537905	    -12.23904370	      6.25179334
      3.79000000	    -14.47805404	     10.12341346	     -8.47041945	     -0.77144234	     -0.01784230	      0.06030810	     22.01610254	    -15.72944859	     -2.67152168	    -59.41506486	    -22.61926821	     11.64755002	     36.62254252	     27.11360287	      9.35586827	    -17.04186156	    -13.69569545	     -7.74797350	      3.41725393	     10.11867710	     14.18054525	    -12.16115645	      5.91809596
      3.79500000	    -14.28677875	      9.98360004	     -8.33086770	     -0.76552964	     -0.01664830	      0.05946557	     22.44532781	    -15.56943607	     -2.49941751	    -59.93862971	    -22.12982905	     11.79811823	     37.52027530	     26.28484819	      9.51538312	    -16.73426427	    -13.25504565	     -7.58403112	      3.46100007	      9.96600052	     13.94272827	    -12.06347474	      5.57099935
      3.80000000	    -14.25945738	      9.82714037	     -8.13834763	     -0.75961083	     -0.01571038	      0.05862805	     23.03655592	    -15.36987585	     -2.36923872	    -60.46803437	    -21.53977724	     12.12149227	     37.93580764	     25.65018121	      9.62100706	    -16.48519964	    -12.85790701	     -7.40398252	      3.61033946	     10.00418062	     13.88780481	    -11.93776555	      5.20963911
      3.80500000	    -14.09488156	      9.66741244	     -7.95489746	     -0.75371900	     -0.01458789	      0.05773195	     23.44993238	    -15.18907729	     -2.24731289	    -60.85429272	    -21.11420811	     12.33926926	     39.13003693	     24.83790417	      9.77058282	    -16.08285374	    -12.40206170	     -7.28672775	      3.55803568	      9.81651550	     13.67321313	    -11.82222357	      4.82229467
      3.81000000	    -14.07494617	      9.47480335	     -7.75749314	     -0.74787219	     -0.01366468	      0.05690301	     24.01655227	    -14.92602568	     -2.10553737	    -61.25153201	    -20.56580446	     12.78677311	     39.60371648	     24.20804436	      9.82708909	    -15.82216885	    -12.00527217	     -7.12740291	      3.71305120	      9.83641951	     13.61524537	    -11.65842807	      4.43374795
      3.81500000	    -13.91363692	      9.29017556	     -7.55175850	     -0.74196831	     -0.01261343	      0.05599682	     24.39094355	    -14.71974694	     -2.03669603	    -61.52942450	    -20.08492232	     13.05775108	     40.70608251	     23.39051295	      9.94548075	    -15.39911223	    -11.54905339	     -6.99378617	      3.67025266	      9.66077646	     13.40897282	    -11.51799840	      4.05342562
      3.82000000	    -13.89781187	      9.08224311	     -7.35212617	     -0.73619354	     -0.01176029	      0.05516815	     24.94384447	    -14.42785179	     -1.90706257	    -61.82699236	    -19.51616689	     13.53145047	     41.13994143	     22.76545790	      9.97406018	    -15.13095048	    -11.14963504	     -6.83795147	      3.81931723	      9.67908945	     13.35121869	    -11.33373364	      3.67039251
      3.82500000	    -13.73900694	      8.87952039	     -7.13035983	     -0.73033745	     -0.01077228	      0.05426277	     25.29460295	    -14.19826153	     -1.87134417	    -62.01400528	    -18.97936143	     13.83604968	     42.03536266	     21.94996629	     10.06013197	    -14.71378480	    -10.69376082	     -6.71406611	      3.80583264	      9.53859383	     13.14416769	    -11.17704871	      3.27641360
      3.83000000	    -13.72583397	      8.66979347	     -6.92823893	     -0.72461436	     -0.00999501	      0.05343900	     25.83541288	    -13.89945710	     -1.76404806	    -62.21860184	    -18.38759069	     14.27008279	     42.40082535	     21.32771873	     10.07407973	    -14.44301270	    -10.28778308	     -6.57043273	      3.95179401	      9.55598160	     13.09054681	    -10.98874631	      2.90674823
      3.83500000	    -13.58249805	      8.46324131	     -6.69539351	     -0.71887583	     -0.00911569	      0.05252649	     26.19810024	    -13.65803843	     -1.74758149	    -62.34046839	    -17.80026362	     14.55482867	     42.98311155	     20.54632421	     10.13581605	    -14.06404032	     -9.85082445	     -6.45371670	      3.96865311	      9.47258544	     12.88860780	    -10.82631356	      2.48521722
      3.84000000	    -13.55946088	      8.25304853	     -6.48503062	     -0.71315541	     -0.00838995	      0.05168698	     26.70496985	    -13.36616046	     -1.68363998	    -62.44230301	    -17.22044351	     14.88047665	     43.28312808	     19.90225453	     10.14496852	    -13.76273312	     -9.42234166	     -6.32890032	      4.09578111	      9.47378378	     12.83451961	    -10.63601666	      2.14136704
      3.84500000	    -13.44057897	      8.04004649	     -6.24063380	     -0.70747941	     -0.00761267	      0.05076744	     27.08219883	    -13.11164435	     -1.69274585	    -62.48740713	    -16.63271709	     15.06399661	     43.62507855	     19.15405199	     10.18087686	    -13.38469158	     -8.99265956	     -6.22259379	      4.12628945	      9.41846036	     12.65555552	    -10.46234609	      1.72099768
      3.85000000	    -13.40073351	      7.82643365	     -6.00756359	     -0.70179113	     -0.00694525	      0.04987990	     27.54679714	    -12.83182764	     -1.68103442	    -62.49632044	    -16.07140402	     15.24564518	     43.81935856	     18.49182272	     10.18628442	    -13.04865123	     -8.56215964	     -6.11469914	      4.22390187	      9.40573856	     12.57963872	    -10.27056251	      1.36671452
      3.85500000	    -13.32072927	      7.60622071	     -5.74698472	     -0.69615127	     -0.00627791	      0.04895115	     27.95077816	    -12.56680152	     -1.72282708	    -62.46239474	    -15.51149313	     15.30391544	     43.94281654	     17.79081683	     10.19463728	    -12.66827269	     -8.13936620	     -6.01490772	      4.28035744	      9.37806739	     12.44789865	    -10.08480057	      0.96545524
      3.86000000	    -13.24296620	      7.38856744	     -5.49101786	     -0.69054363	     -0.00565444	      0.04802778	     28.35590447	    -12.29852024	     -1.76776601	    -62.39151729	    -14.96809824	     15.26715314	     43.97948163	     17.09735777	     10.19590227	    -12.29036861	     -7.72007979	     -5.92283635	      4.31863096	      9.34637604	     12.32012977	     -9.89714184	      0.57949998
      3.86500000	    -13.16931640	      7.17653358	     -5.23058343	     -0.68497205	     -0.00508200	      0.04709782	     28.76188469	    -12.03597739	     -1.82093900	    -62.28538681	    -14.43355958	     15.16039168	     43.92946451	     16.41701175	     10.19515601	    -11.91945528	     -7.31026077	     -5.83592326	      4.35410285	      9.31946690	     12.19614566	     -9.71425357	      0.19406234
      3.87000000	    -13.10455237	      6.96645968	     -4.96559562	     -0.67942553	     -0.00456100	      0.04617198	     29.17060935	    -11.77402203	     -1.88217376	    -62.14059905	    -13.90969914	     14.99101729	     43.80003697	     15.75380882	     10.18649243	    -11.55653498	     -6.91002160	     -5.74986597	      4.39875849	      9.30403829	     12.08414451	     -9.53200748	     -0.18415698
      3.87500000	    -13.04239509	      6.75910022	     -4.69638693	     -0.67390604	     -0.00408650	      0.04523474	     29.57323795	    -11.51571433	     -1.95152610	    -61.95564230	    -13.38866127	     14.76379291	     43.59358288	     15.10263712	     10.17317311	    -11.19996387	     -6.52173736	     -5.66373142	      4.44909100	      9.29847931	     11.97422174	     -9.35259619	     -0.55843711
      3.88000000	    -12.94728605	      6.56152763	     -4.43087103	     -0.66845170	     -0.00363801	      0.04428409	     29.93513633	    -11.26899805	     -2.00887942	    -61.73766420	    -12.83503437	     14.55939073	     43.20956983	     14.42998120	     10.16719980	    -10.85089791	     -6.14925543	     -5.58116668	      4.45981831	      9.28869629	     11.82197007	     -9.18251777	     -0.95628271
      3.88500000	    -12.86911256	      6.36988896	     -4.14999459	     -0.66294614	     -0.00323841	      0.04332242	     30.29530773	    -11.04112787	     -2.09530967	    -61.48008049	    -12.27454920	     14.35503769	     42.63897894	     13.76906795	     10.15913905	    -10.48395160	     -5.77006730	     -5.50144055	      4.51515263	      9.28617214	     11.70132848	     -9.01637107	     -1.30198831
